<?xml version="1.0" encoding="UTF-8" standalone="no"?>
<svg
   xmlns:dc="http://purl.org/dc/elements/1.1/"
   xmlns:cc="http://creativecommons.org/ns#"
   xmlns:rdf="http://www.w3.org/1999/02/22-rdf-syntax-ns#"
   xmlns:svg="http://www.w3.org/2000/svg"
   xmlns="http://www.w3.org/2000/svg"
   xmlns:sodipodi="http://sodipodi.sourceforge.net/DTD/sodipodi-0.dtd"
   xmlns:inkscape="http://www.inkscape.org/namespaces/inkscape"
   version="1.1"
   id="Your_Icon"
   x="0px"
   y="0px"
   width="40"
   height="40"
   viewBox="0 0 40 40.000001"
   enable-background="new 0 0 100 100"
   xml:space="preserve"
   inkscape:version="0.48.4 r9939"
   sodipodi:docname="icon_20702.svg"><metadata
   id="metadata3001"><rdf:RDF><cc:Work
       rdf:about=""><dc:format>image/svg+xml</dc:format><dc:type
         rdf:resource="http://purl.org/dc/dcmitype/StillImage" /></cc:Work></rdf:RDF></metadata><defs
   id="defs2999" /><sodipodi:namedview
   pagecolor="#000000"
   bordercolor="#666666"
   borderopacity="1"
   objecttolerance="10"
   gridtolerance="10"
   guidetolerance="10"
   inkscape:pageopacity="1"
   inkscape:pageshadow="2"
   inkscape:window-width="1920"
   inkscape:window-height="1121"
   id="namedview2997"
   showgrid="false"
   inkscape:zoom="2.36"
   inkscape:cx="-22.881356"
   inkscape:cy="50"
   inkscape:window-x="1912"
   inkscape:window-y="-8"
   inkscape:window-maximized="1"
   inkscape:current-layer="Your_Icon"
   width="40px" />
<path
   d="m 27.633882,16.877083 c 0.168756,-0.150721 0.170371,-0.398066 0.0032,-0.550405 l -4.049853,-3.684635 c -0.167141,-0.152338 -0.442748,-0.400228 -0.611772,-0.55041 l -0.3507,-0.313021 C 22.455758,11.62816 22.317416,11.5022 22.317416,11.499241 c 0,-0.0033 -0.138612,-0.128925 -0.307636,-0.278838 l -1.030313,-0.914031 c -0.169026,-0.149913 -0.307906,-0.08774 -0.307906,0.138616 v 8.516379 c 0,0.226082 -0.138073,0.288529 -0.307367,0.137803 l -4.906299,-4.369614 c -0.169025,-0.150727 -0.430368,-0.135382 -0.580821,0.03366 l -0.547716,0.614733 c -0.150724,0.169295 -0.135382,0.430368 0.03365,0.581089 l 5.605815,4.991843 c 0.169025,0.150755 0.169025,0.396494 0,0.547193 l -5.605815,4.992167 c -0.169024,0.1507 -0.184635,0.411509 -0.03365,0.580799 l 0.547716,0.614733 c 0.150723,0.169069 0.411796,0.184359 0.580821,0.03355 l 4.906838,-4.369624 c 0.169024,-0.1507 0.307366,-0.08827 0.307366,0.138104 v 8.516115 c 0,0.226324 0.138612,0.288475 0.307906,0.138875 l 1.030298,-0.914042 c 0.169026,-0.149929 0.307637,-0.27533 0.307637,-0.278575 0,-0.0055 0.138342,-0.128918 0.307366,-0.279398 l 0.3507,-0.313004 C 23.1453,30.207623 23.420639,29.959684 23.58778,29.80739 l 4.049332,-3.685207 c 0.167141,-0.152076 0.165526,-0.399684 -0.0032,-0.550384 l -4.574963,-4.073836 c -0.169294,-0.150699 -0.169294,-0.396438 0,-0.547193 L 27.6339,16.87699 z M 22.317401,14.12101 c 0,-0.226088 0.138342,-0.28799 0.307367,-0.137802 l 2.583822,2.302023 c 0.168755,0.150452 0.168755,0.396724 0,0.547176 l -2.583822,2.300944 c -0.169025,0.150727 -0.307367,0.08855 -0.307367,-0.137802 V 14.12101 z m 0.307367,14.344769 c -0.169025,0.150479 -0.307367,0.08827 -0.307367,-0.13783 v -4.874522 c 0,-0.226324 0.138342,-0.28853 0.307367,-0.138049 l 2.583822,2.300915 c 0.168755,0.15103 0.168755,0.397264 0,0.547194 l -2.583822,2.302292 z"
   id="path2995"
   inkscape:connector-curvature="0"
   style="fill:#ffffff;fill-opacity:1" />
</svg>