<?xml version="1.0" encoding="utf-8"?>
<!-- Generator: Adobe Illustrator 15.1.0, SVG Export Plug-In . SVG Version: 6.00 Build 0)  -->
<!DOCTYPE svg PUBLIC "-//W3C//DTD SVG 1.1//EN" "http://www.w3.org/Graphics/SVG/1.1/DTD/svg11.dtd">
<svg version="1.1" id="Layer_1" xmlns="http://www.w3.org/2000/svg" xmlns:xlink="http://www.w3.org/1999/xlink" x="0px" y="0px"
	 width="100px" height="98.911px" viewBox="0 0 100 98.911" enable-background="new 0 0 100 98.911" xml:space="preserve">
<path fill="#010101" d="M20.202,69.47L0,89.673l9.238,9.237l19.98-19.979C25.814,76.201,22.776,73.02,20.202,69.47z"/>
<path fill="#010101" d="M58.627,0C36.125,0,18.344,17.781,18.344,40.283s17.781,41.372,40.283,41.372
	c22.5,0,41.373-18.87,41.373-41.372S81.129,0,58.627,0z M58.627,75.122c-18.901,0-33.75-15.938-33.75-34.839
	c0-18.9,14.849-33.751,33.75-33.751c18.902,0,34.84,14.851,34.84,33.751C93.467,59.184,77.53,75.122,58.627,75.122z"/>
</svg>
