<?xml version="1.0" encoding="UTF-8" standalone="no"?>
<!-- Generator: Adobe Illustrator 15.1.0, SVG Export Plug-In . SVG Version: 6.00 Build 0)  -->

<svg
   xmlns:dc="http://purl.org/dc/elements/1.1/"
   xmlns:cc="http://creativecommons.org/ns#"
   xmlns:rdf="http://www.w3.org/1999/02/22-rdf-syntax-ns#"
   xmlns:svg="http://www.w3.org/2000/svg"
   xmlns="http://www.w3.org/2000/svg"
   xmlns:sodipodi="http://sodipodi.sourceforge.net/DTD/sodipodi-0.dtd"
   xmlns:inkscape="http://www.inkscape.org/namespaces/inkscape"
   version="1.1"
   id="Layer_1"
   x="0px"
   y="0px"
   width="100px"
   height="98.911px"
   viewBox="0 0 100 98.911"
   enable-background="new 0 0 100 98.911"
   xml:space="preserve"
   inkscape:version="0.48.4 r9939"
   sodipodi:docname="icon.svg"><metadata
   id="metadata3021"><rdf:RDF><cc:Work
       rdf:about=""><dc:format>image/svg+xml</dc:format><dc:type
         rdf:resource="http://purl.org/dc/dcmitype/StillImage" /></cc:Work></rdf:RDF></metadata><defs
   id="defs3019" /><sodipodi:namedview
   pagecolor="#000000"
   bordercolor="#666666"
   borderopacity="1"
   objecttolerance="10"
   gridtolerance="10"
   guidetolerance="10"
   inkscape:pageopacity="1"
   inkscape:pageshadow="2"
   inkscape:window-width="1280"
   inkscape:window-height="660"
   id="namedview3017"
   showgrid="false"
   inkscape:zoom="2.3859833"
   inkscape:cx="-19.572994"
   inkscape:cy="55.742218"
   inkscape:window-x="-8"
   inkscape:window-y="-8"
   inkscape:window-maximized="1"
   inkscape:current-layer="Layer_1" />


<g
   id="g3030"
   transform="matrix(1.060004,0,0,1.060004,-3.0002022,-2.9675)"><path
     style="fill:#ffffff"
     id="path3013"
     d="M 20.202,69.47 0,89.673 9.238,98.91 29.218,78.931 C 25.814,76.201 22.776,73.02 20.202,69.47 z"
     inkscape:connector-curvature="0" /><path
     style="fill:#ffffff"
     id="path3015"
     d="M 58.627,0 C 36.125,0 18.344,17.781 18.344,40.283 c 0,22.502 17.781,41.372 40.283,41.372 C 81.127,81.655 100,62.785 100,40.283 100,17.781 81.129,0 58.627,0 z m 0,75.122 c -18.901,0 -33.75,-15.938 -33.75,-34.839 0,-18.9 14.849,-33.751 33.75,-33.751 18.902,0 34.84,14.851 34.84,33.751 0,18.901 -15.937,34.839 -34.84,34.839 z"
     inkscape:connector-curvature="0" /><path
     inkscape:transform-center-y="-10.896975"
     inkscape:transform-center-x="8.3822884"
     style="fill:#ffffff;fill-opacity:1"
     inkscape:connector-curvature="0"
     id="path2995"
     d="m 73.770444,31.046374 c 0.372951,-0.333094 0.376521,-0.879725 0.007,-1.216395 L 64.827341,21.686936 C 64.457959,21.350268 63.848868,20.802431 63.475326,20.47053 l -0.775047,-0.691777 c -0.373489,-0.332498 -0.679224,-0.61087 -0.679224,-0.617409 0,-0.0073 -0.306334,-0.284925 -0.679876,-0.616233 l -2.276991,-2.020008 c -0.373549,-0.331308 -0.680474,-0.193906 -0.680474,0.306342 v 18.821197 c 0,0.499641 -0.305141,0.637649 -0.679281,0.304545 l -10.84292,-9.656848 c -0.373545,-0.333106 -0.951113,-0.299195 -1.283615,0.07439 l -1.210452,1.35856 c -0.3331,0.374142 -0.299194,0.951114 0.07437,1.284207 l 12.388852,11.031971 c 0.373544,0.333168 0.373544,0.876251 0,1.209297 L 44.441819,52.291449 c -0.373543,0.333047 -0.408043,0.909434 -0.07437,1.283565 l 1.210452,1.35856 c 0.333099,0.373642 0.91007,0.407433 1.283615,0.07414 l 10.844112,-9.656869 c 0.373544,-0.333047 0.679279,-0.195077 0.679279,0.30521 v 18.820614 c 0,0.500175 0.306332,0.637529 0.680472,0.306913 l 2.276959,-2.020033 c 0.373547,-0.331344 0.679878,-0.608479 0.679878,-0.615651 0,-0.01222 0.305735,-0.284908 0.679279,-0.617469 l 0.775047,-0.691739 c 0.37414,-0.331834 0.982638,-0.879779 1.35202,-1.216349 l 8.949024,-8.144307 c 0.369382,-0.336088 0.365812,-0.883302 -0.007,-1.216349 L 63.659894,41.258507 c -0.37414,-0.333044 -0.37414,-0.876128 0,-1.209296 L 73.770537,31.04616 z M 62.021021,24.955453 c 0,-0.499655 0.305736,-0.636458 0.679281,-0.304543 l 5.710247,5.087471 c 0.372948,0.332499 0.372948,0.87676 0,1.20926 l -5.710247,5.085085 c -0.373545,0.333107 -0.679281,0.195695 -0.679281,-0.304542 V 24.955453 z m 0.679281,31.701937 c -0.373545,0.332559 -0.679281,0.195076 -0.679281,-0.304605 V 45.580092 c 0,-0.500176 0.305736,-0.637651 0.679281,-0.305088 l 5.710247,5.085022 c 0.372948,0.333776 0.372948,0.877953 0,1.209299 l -5.710247,5.088065 z" /></g></svg>